<?xml version="1.0" standalone="no"?>
<!DOCTYPE svg PUBLIC "-//W3C//DTD SVG 20010904//EN"
 "http://www.w3.org/TR/2001/REC-SVG-20010904/DTD/svg10.dtd">
<svg version="1.0" xmlns="http://www.w3.org/2000/svg"
 width="558.000000pt" height="558.000000pt" viewBox="0 0 558.000000 558.000000"
 preserveAspectRatio="xMidYMid meet">
<metadata>
Created by potrace 1.11, written by Peter Selinger 2001-2013
</metadata>
<g transform="translate(0.000000,558.000000) scale(0.100000,-0.100000)"
fill="#000000" stroke="none">
<path d="M0 2790 l0 -2790 2790 0 2790 0 0 2790 0 2790 -2790 0 -2790 0 0
-2790z m1792 1304 c309 -40 542 -142 725 -317 235 -226 337 -500 336 -902 -3
-694 -292 -1199 -838 -1466 -330 -161 -714 -213 -1180 -160 -231 27 -288 49
-321 128 -30 69 -11 300 57 728 72 452 213 1090 262 1187 40 79 111 109 261
109 102 0 147 -13 181 -51 30 -33 23 -90 -29 -273 -108 -375 -242 -1108 -258
-1407 l-3 -55 220 0 c234 1 310 11 453 59 247 84 430 249 555 501 46 92 99
248 117 342 34 183 42 462 16 594 -74 384 -351 599 -796 616 -338 13 -662 -76
-1025 -281 -115 -65 -172 -61 -216 18 -27 47 -31 145 -10 208 22 66 114 139
281 223 193 97 469 175 720 204 127 14 360 12 492 -5z m2782 -40 c356 -56 585
-236 643 -507 18 -84 12 -264 -11 -338 -44 -141 -120 -209 -237 -209 -47 0
-129 42 -160 82 -26 35 -29 78 -20 309 5 134 -31 194 -148 254 -152 76 -438
86 -631 20 -83 -28 -169 -82 -204 -127 -51 -68 -70 -126 -70 -223 -1 -109 18
-158 91 -236 87 -93 161 -134 520 -285 377 -159 476 -216 593 -341 119 -128
164 -249 162 -438 -3 -295 -134 -508 -399 -647 -182 -96 -351 -136 -618 -145
-341 -11 -583 39 -782 163 -202 126 -302 361 -263 619 28 187 102 269 245 270
57 0 78 -5 114 -25 84 -47 93 -81 77 -310 -9 -127 -3 -157 47 -216 31 -37 129
-86 212 -108 106 -27 286 -39 416 -27 318 29 491 160 490 372 -1 103 -25 161
-98 230 -77 74 -168 121 -512 264 -347 144 -455 208 -583 343 -89 95 -142 194
-163 307 -59 306 62 601 319 777 233 160 613 228 970 172z"/>
</g>
</svg>
