<?xml version="1.0" encoding="UTF-8" standalone="no"?>
<!DOCTYPE svg PUBLIC "-//W3C//DTD SVG 1.1//EN" "http://www.w3.org/Graphics/SVG/1.1/DTD/svg11.dtd">
<svg width="25px" height="25px" version="1.1" xmlns="http://www.w3.org/2000/svg" xmlns:xlink="http://www.w3.org/1999/xlink" xml:space="preserve" xmlns:serif="http://www.serif.com/" style="fill-rule:evenodd;clip-rule:evenodd;stroke-linejoin:round;stroke-miterlimit:2;">
    <g transform="matrix(1.25,0,0,1.25,0,0)">
        <path d="M10,0.2C4.588,0.2 0.2,4.588 0.2,10C0.2,15.412 4.588,19.8 10,19.8C15.412,19.8 19.8,15.412 19.8,10C19.8,4.588 15.412,0.2 10,0.2ZM10,18.268C5.434,18.268 1.732,14.566 1.732,10C1.732,5.434 5.434,1.732 10,1.732C14.566,1.732 18.268,5.434 18.268,10C18.268,14.566 14.566,18.268 10,18.268Z" style="fill-rule:nonzero;"/>
        <path d="M9.484,7.576C9.664,7.828 9.756,8.132 9.756,8.486C9.756,8.85 9.664,9.144 9.482,9.366C9.38,9.49 9.23,9.604 9.032,9.706C9.332,9.818 9.56,9.992 9.714,10.232C9.868,10.474 9.944,10.764 9.944,11.108C9.944,11.462 9.856,11.78 9.68,12.06C9.568,12.248 9.43,12.404 9.262,12.532C9.074,12.678 8.85,12.776 8.596,12.832C8.34,12.884 8.062,12.912 7.762,12.912L5.1,12.912L5.1,6.938L7.954,6.938C8.674,6.948 9.186,7.16 9.484,7.576ZM6.278,7.974L6.278,9.292L7.714,9.292C7.97,9.292 8.178,9.242 8.34,9.144C8.498,9.044 8.58,8.87 8.58,8.618C8.58,8.338 8.474,8.156 8.262,8.066C8.08,8.004 7.846,7.974 7.564,7.974L6.278,7.974ZM6.278,10.284L6.278,11.876L7.712,11.876C7.968,11.876 8.168,11.84 8.31,11.77C8.57,11.64 8.698,11.39 8.698,11.024C8.698,10.712 8.572,10.5 8.322,10.384C8.182,10.32 7.986,10.286 7.732,10.284L6.278,10.284Z" style="fill-rule:nonzero;"/>
        <path d="M13.758,8.582C14.064,8.72 14.314,8.938 14.514,9.236C14.692,9.5 14.808,9.804 14.862,10.15C14.892,10.352 14.904,10.644 14.9,11.026L11.72,11.026C11.738,11.472 11.892,11.78 12.178,11.96C12.352,12.07 12.562,12.126 12.806,12.126C13.066,12.126 13.278,12.058 13.44,11.924C13.53,11.852 13.608,11.752 13.676,11.62L14.84,11.62C14.81,11.88 14.668,12.148 14.416,12.42C14.024,12.848 13.476,13.064 12.772,13.064C12.192,13.064 11.68,12.882 11.234,12.52C10.79,12.156 10.568,11.568 10.568,10.75C10.568,9.986 10.768,9.398 11.17,8.99C11.57,8.582 12.09,8.376 12.73,8.376C13.112,8.376 13.454,8.446 13.758,8.582ZM12.05,9.582C11.888,9.752 11.788,9.978 11.746,10.268L13.712,10.268C13.692,9.96 13.59,9.726 13.406,9.568C13.224,9.41 13,9.33 12.73,9.33C12.44,9.33 12.212,9.414 12.05,9.582Z" style="fill-rule:nonzero;"/>
        <rect x="11.226" y="7.55" width="3.062" height="0.612"/>
    </g>
</svg>
