<?xml version="1.0" encoding="UTF-8" standalone="no"?>
<!DOCTYPE svg PUBLIC "-//W3C//DTD SVG 1.1//EN" "http://www.w3.org/Graphics/SVG/1.1/DTD/svg11.dtd">
<svg width="100%" height="100%" viewBox="0 0 50 50" version="1.1" xmlns="http://www.w3.org/2000/svg" xmlns:xlink="http://www.w3.org/1999/xlink" xml:space="preserve" xmlns:serif="http://www.serif.com/" style="fill-rule:evenodd;clip-rule:evenodd;stroke-linejoin:round;stroke-miterlimit:2;">
    <g transform="matrix(1,0,0,1,6.48505,2.39608)">
        <g transform="matrix(20.9114,0,0,26.4599,1.55897,33.9155)">
            <path d="M0.308,0.005C0.269,0.005 0.226,0.002 0.177,-0.005C0.15,-0.008 0.132,-0.015 0.122,-0.026C0.112,-0.037 0.108,-0.054 0.109,-0.078C0.114,-0.144 0.125,-0.226 0.142,-0.323C0.159,-0.42 0.18,-0.513 0.205,-0.603C0.21,-0.62 0.219,-0.631 0.233,-0.638C0.247,-0.645 0.265,-0.648 0.288,-0.648C0.329,-0.648 0.349,-0.637 0.349,-0.614C0.349,-0.605 0.347,-0.594 0.343,-0.582C0.326,-0.529 0.308,-0.457 0.291,-0.368C0.274,-0.278 0.261,-0.192 0.254,-0.111C0.274,-0.109 0.297,-0.108 0.322,-0.108C0.439,-0.108 0.526,-0.143 0.584,-0.214C0.641,-0.285 0.67,-0.379 0.67,-0.497C0.67,-0.576 0.647,-0.638 0.602,-0.681C0.557,-0.724 0.493,-0.746 0.41,-0.746C0.357,-0.746 0.304,-0.738 0.252,-0.721C0.199,-0.704 0.152,-0.682 0.11,-0.655C0.101,-0.649 0.092,-0.646 0.082,-0.646C0.071,-0.646 0.062,-0.651 0.055,-0.661C0.048,-0.67 0.045,-0.682 0.045,-0.696C0.045,-0.712 0.048,-0.725 0.053,-0.736C0.058,-0.746 0.067,-0.755 0.08,-0.764C0.126,-0.795 0.18,-0.819 0.242,-0.836C0.304,-0.852 0.364,-0.86 0.421,-0.86C0.502,-0.86 0.573,-0.846 0.632,-0.818C0.691,-0.789 0.737,-0.748 0.769,-0.693C0.801,-0.638 0.817,-0.572 0.817,-0.495C0.817,-0.394 0.797,-0.307 0.757,-0.232C0.717,-0.157 0.659,-0.098 0.582,-0.057C0.505,-0.016 0.414,0.005 0.308,0.005Z" style="fill:white;fill-rule:nonzero;"/>
        </g>
        <g transform="matrix(20.9114,0,0,26.4599,20.0383,33.7303)">
            <path d="M0.327,0.008C0.238,0.008 0.167,-0.009 0.114,-0.043C0.061,-0.076 0.034,-0.128 0.034,-0.197C0.034,-0.234 0.04,-0.262 0.053,-0.281C0.066,-0.3 0.084,-0.31 0.109,-0.31C0.127,-0.31 0.142,-0.305 0.153,-0.296C0.164,-0.287 0.17,-0.275 0.17,-0.26C0.17,-0.247 0.169,-0.235 0.167,-0.225C0.167,-0.222 0.167,-0.218 0.166,-0.211C0.165,-0.204 0.164,-0.197 0.164,-0.19C0.164,-0.16 0.179,-0.138 0.21,-0.123C0.24,-0.108 0.282,-0.101 0.337,-0.101C0.394,-0.101 0.438,-0.111 0.47,-0.132C0.502,-0.152 0.518,-0.18 0.518,-0.217C0.518,-0.24 0.511,-0.259 0.496,-0.276C0.481,-0.292 0.463,-0.306 0.441,-0.317C0.419,-0.328 0.388,-0.341 0.348,-0.357C0.297,-0.377 0.255,-0.396 0.223,-0.414C0.19,-0.432 0.163,-0.457 0.14,-0.488C0.117,-0.519 0.105,-0.557 0.105,-0.603C0.105,-0.651 0.118,-0.694 0.143,-0.731C0.169,-0.768 0.206,-0.797 0.255,-0.818C0.303,-0.839 0.36,-0.849 0.425,-0.849C0.474,-0.849 0.518,-0.842 0.559,-0.828C0.6,-0.813 0.632,-0.791 0.657,-0.762C0.681,-0.733 0.693,-0.697 0.693,-0.654C0.693,-0.612 0.687,-0.58 0.674,-0.559C0.661,-0.538 0.643,-0.527 0.618,-0.527C0.601,-0.527 0.586,-0.532 0.575,-0.543C0.563,-0.554 0.557,-0.566 0.557,-0.581C0.557,-0.594 0.558,-0.605 0.56,-0.616C0.562,-0.636 0.563,-0.649 0.563,-0.654C0.563,-0.682 0.549,-0.703 0.522,-0.718C0.495,-0.733 0.461,-0.74 0.42,-0.74C0.363,-0.74 0.319,-0.73 0.289,-0.709C0.258,-0.688 0.243,-0.658 0.243,-0.62C0.243,-0.595 0.251,-0.573 0.267,-0.555C0.282,-0.537 0.302,-0.522 0.325,-0.51C0.348,-0.498 0.381,-0.484 0.423,-0.467C0.474,-0.446 0.514,-0.428 0.545,-0.411C0.576,-0.394 0.602,-0.372 0.624,-0.343C0.645,-0.314 0.656,-0.279 0.656,-0.237C0.656,-0.158 0.626,-0.098 0.567,-0.056C0.507,-0.013 0.427,0.008 0.327,0.008Z" style="fill:white;fill-rule:nonzero;"/>
        </g>
    </g>
</svg>
