<?xml version="1.0" encoding="UTF-8" standalone="no"?>
<!DOCTYPE svg PUBLIC "-//W3C//DTD SVG 1.1//EN" "http://www.w3.org/Graphics/SVG/1.1/DTD/svg11.dtd">
<svg width="100%" height="100%" viewBox="0 0 150 50" version="1.1" xmlns="http://www.w3.org/2000/svg" xmlns:xlink="http://www.w3.org/1999/xlink" xml:space="preserve" xmlns:serif="http://www.serif.com/" style="fill-rule:evenodd;clip-rule:evenodd;stroke-linejoin:round;stroke-miterlimit:2;">
    <g transform="matrix(0.576693,0,0,0.729709,-5.93054,8.60514)">
        <g transform="matrix(36.2609,0,0,36.2609,12.987,34.5238)">
            <path d="M0.308,0.005C0.269,0.005 0.226,0.002 0.177,-0.005C0.15,-0.008 0.132,-0.015 0.122,-0.026C0.112,-0.037 0.108,-0.054 0.109,-0.078C0.114,-0.144 0.125,-0.226 0.142,-0.323C0.159,-0.42 0.18,-0.513 0.205,-0.603C0.21,-0.62 0.219,-0.631 0.233,-0.638C0.247,-0.645 0.265,-0.648 0.288,-0.648C0.329,-0.648 0.349,-0.637 0.349,-0.614C0.349,-0.605 0.347,-0.594 0.343,-0.582C0.326,-0.529 0.308,-0.457 0.291,-0.368C0.274,-0.278 0.261,-0.192 0.254,-0.111C0.274,-0.109 0.297,-0.108 0.322,-0.108C0.439,-0.108 0.526,-0.143 0.584,-0.214C0.641,-0.285 0.67,-0.379 0.67,-0.497C0.67,-0.576 0.647,-0.638 0.602,-0.681C0.557,-0.724 0.493,-0.746 0.41,-0.746C0.357,-0.746 0.304,-0.738 0.252,-0.721C0.199,-0.704 0.152,-0.682 0.11,-0.655C0.101,-0.649 0.092,-0.646 0.082,-0.646C0.071,-0.646 0.062,-0.651 0.055,-0.661C0.048,-0.67 0.045,-0.682 0.045,-0.696C0.045,-0.712 0.048,-0.725 0.053,-0.736C0.058,-0.746 0.067,-0.755 0.08,-0.764C0.126,-0.795 0.18,-0.819 0.242,-0.836C0.304,-0.852 0.364,-0.86 0.421,-0.86C0.502,-0.86 0.573,-0.846 0.632,-0.818C0.691,-0.789 0.737,-0.748 0.769,-0.693C0.801,-0.638 0.817,-0.572 0.817,-0.495C0.817,-0.394 0.797,-0.307 0.757,-0.232C0.717,-0.157 0.659,-0.098 0.582,-0.057C0.505,-0.016 0.414,0.005 0.308,0.005Z" style="fill:white;fill-rule:nonzero;"/>
        </g>
        <g transform="matrix(36.2609,0,0,36.2609,42.9386,34.5238)">
            <path d="M0.56,-0.221C0.569,-0.221 0.576,-0.217 0.581,-0.209C0.586,-0.2 0.588,-0.19 0.588,-0.177C0.588,-0.162 0.586,-0.15 0.581,-0.141C0.576,-0.132 0.569,-0.125 0.559,-0.118L0.367,0.011C0.342,0.149 0.309,0.257 0.268,0.336C0.227,0.415 0.174,0.455 0.111,0.455C0.077,0.455 0.049,0.444 0.028,0.423C0.007,0.402 -0.004,0.375 -0.004,0.341C-0.004,0.31 0.003,0.278 0.018,0.245C0.032,0.212 0.059,0.175 0.098,0.132C0.137,0.09 0.192,0.042 0.263,-0.013L0.266,-0.036C0.271,-0.061 0.276,-0.096 0.282,-0.142C0.269,-0.094 0.25,-0.058 0.226,-0.033C0.202,-0.008 0.177,0.005 0.15,0.005C0.12,0.005 0.096,-0.009 0.077,-0.037C0.058,-0.064 0.048,-0.099 0.048,-0.14C0.048,-0.19 0.051,-0.236 0.058,-0.278C0.065,-0.319 0.076,-0.363 0.091,-0.41C0.098,-0.43 0.107,-0.444 0.119,-0.453C0.131,-0.462 0.15,-0.466 0.176,-0.466C0.191,-0.466 0.201,-0.464 0.206,-0.459C0.212,-0.454 0.215,-0.447 0.215,-0.438C0.215,-0.433 0.211,-0.415 0.204,-0.384C0.197,-0.359 0.192,-0.337 0.188,-0.317C0.183,-0.29 0.178,-0.264 0.174,-0.238C0.17,-0.214 0.168,-0.193 0.168,-0.177C0.168,-0.152 0.175,-0.139 0.189,-0.139C0.199,-0.139 0.212,-0.149 0.227,-0.169C0.242,-0.189 0.258,-0.219 0.275,-0.26C0.292,-0.301 0.308,-0.351 0.324,-0.41C0.329,-0.43 0.338,-0.444 0.348,-0.453C0.36,-0.462 0.376,-0.466 0.398,-0.466C0.413,-0.466 0.424,-0.464 0.43,-0.46C0.436,-0.456 0.439,-0.449 0.439,-0.44C0.439,-0.423 0.43,-0.366 0.413,-0.268L0.387,-0.107C0.438,-0.146 0.488,-0.181 0.537,-0.213C0.546,-0.218 0.553,-0.221 0.56,-0.221ZM0.122,0.358C0.139,0.358 0.157,0.339 0.178,0.3C0.199,0.261 0.219,0.197 0.24,0.107C0.189,0.15 0.152,0.19 0.129,0.225C0.106,0.261 0.094,0.292 0.094,0.319C0.094,0.33 0.096,0.34 0.101,0.347C0.105,0.354 0.112,0.358 0.122,0.358Z" style="fill:white;fill-rule:nonzero;"/>
        </g>
        <g transform="matrix(36.2609,0,0,36.2609,60.3075,34.5238)">
            <path d="M0.427,-0.223C0.436,-0.223 0.443,-0.219 0.448,-0.211C0.453,-0.203 0.455,-0.192 0.455,-0.178C0.455,-0.151 0.449,-0.131 0.436,-0.116C0.407,-0.081 0.376,-0.052 0.343,-0.029C0.309,-0.006 0.271,0.005 0.228,0.005C0.169,0.005 0.126,-0.022 0.098,-0.075C0.069,-0.128 0.055,-0.197 0.055,-0.282C0.055,-0.363 0.066,-0.456 0.086,-0.56C0.108,-0.664 0.139,-0.753 0.18,-0.828C0.221,-0.903 0.269,-0.94 0.326,-0.94C0.358,-0.94 0.383,-0.925 0.402,-0.896C0.42,-0.866 0.429,-0.823 0.429,-0.768C0.429,-0.689 0.407,-0.597 0.363,-0.492C0.319,-0.387 0.259,-0.284 0.184,-0.181C0.189,-0.154 0.196,-0.134 0.207,-0.123C0.218,-0.111 0.232,-0.105 0.249,-0.105C0.276,-0.105 0.3,-0.113 0.321,-0.129C0.342,-0.144 0.368,-0.171 0.4,-0.209C0.408,-0.218 0.417,-0.223 0.427,-0.223ZM0.304,-0.841C0.289,-0.841 0.271,-0.813 0.252,-0.758C0.233,-0.703 0.216,-0.634 0.201,-0.552C0.186,-0.47 0.178,-0.391 0.177,-0.316C0.224,-0.394 0.262,-0.472 0.29,-0.551C0.318,-0.629 0.332,-0.7 0.332,-0.765C0.332,-0.816 0.323,-0.841 0.304,-0.841Z" style="fill:white;fill-rule:nonzero;"/>
        </g>
        <g transform="matrix(36.2609,0,0,36.2609,71.766,34.5238)">
            <path d="M0.171,0.005C0.13,0.005 0.097,-0.01 0.072,-0.04C0.047,-0.07 0.035,-0.109 0.035,-0.158C0.035,-0.211 0.047,-0.262 0.072,-0.31C0.097,-0.357 0.13,-0.396 0.171,-0.425C0.212,-0.454 0.255,-0.468 0.301,-0.468C0.316,-0.468 0.326,-0.465 0.331,-0.46C0.336,-0.454 0.34,-0.444 0.343,-0.429C0.357,-0.432 0.372,-0.433 0.387,-0.433C0.42,-0.433 0.436,-0.421 0.436,-0.398C0.436,-0.384 0.431,-0.351 0.421,-0.298C0.406,-0.221 0.398,-0.168 0.398,-0.138C0.398,-0.128 0.401,-0.12 0.406,-0.114C0.41,-0.108 0.417,-0.105 0.425,-0.105C0.438,-0.105 0.453,-0.113 0.471,-0.13C0.489,-0.146 0.513,-0.172 0.544,-0.209C0.552,-0.218 0.561,-0.223 0.571,-0.223C0.58,-0.223 0.587,-0.219 0.592,-0.211C0.597,-0.203 0.599,-0.192 0.599,-0.178C0.599,-0.151 0.593,-0.131 0.58,-0.116C0.553,-0.082 0.524,-0.053 0.493,-0.03C0.462,-0.007 0.433,0.005 0.404,0.005C0.382,0.005 0.362,-0.003 0.344,-0.018C0.325,-0.033 0.311,-0.053 0.302,-0.079C0.267,-0.023 0.224,0.005 0.171,0.005ZM0.207,-0.096C0.222,-0.096 0.236,-0.105 0.249,-0.122C0.262,-0.139 0.272,-0.162 0.278,-0.191L0.315,-0.375C0.287,-0.374 0.261,-0.364 0.237,-0.344C0.214,-0.323 0.195,-0.296 0.181,-0.263C0.167,-0.23 0.16,-0.194 0.16,-0.157C0.16,-0.136 0.164,-0.121 0.172,-0.111C0.181,-0.101 0.192,-0.096 0.207,-0.096Z" style="fill:white;fill-rule:nonzero;"/>
        </g>
        <g transform="matrix(36.2609,0,0,36.2609,88.8086,34.5238)">
            <path d="M0.119,0.005C0.094,0.005 0.076,-0.008 0.066,-0.035C0.055,-0.062 0.05,-0.104 0.05,-0.163C0.05,-0.25 0.062,-0.332 0.087,-0.41C0.093,-0.429 0.103,-0.444 0.117,-0.453C0.13,-0.462 0.149,-0.466 0.174,-0.466C0.187,-0.466 0.197,-0.464 0.202,-0.461C0.207,-0.458 0.21,-0.451 0.21,-0.442C0.21,-0.431 0.205,-0.407 0.195,-0.37C0.188,-0.343 0.183,-0.32 0.179,-0.3C0.175,-0.28 0.172,-0.255 0.169,-0.226C0.191,-0.283 0.216,-0.33 0.243,-0.366C0.27,-0.402 0.297,-0.428 0.324,-0.443C0.35,-0.458 0.374,-0.466 0.396,-0.466C0.417,-0.466 0.434,-0.461 0.445,-0.45C0.456,-0.439 0.461,-0.422 0.461,-0.401C0.461,-0.384 0.457,-0.351 0.45,-0.303C0.443,-0.262 0.438,-0.224 0.434,-0.188C0.43,-0.151 0.428,-0.111 0.428,-0.066C0.428,-0.041 0.423,-0.023 0.412,-0.012C0.402,-0.001 0.385,0.005 0.362,0.005C0.34,0.005 0.324,-0.001 0.314,-0.012C0.304,-0.023 0.299,-0.04 0.299,-0.063C0.299,-0.09 0.304,-0.134 0.313,-0.195C0.321,-0.248 0.325,-0.282 0.325,-0.297C0.325,-0.308 0.321,-0.313 0.314,-0.313C0.305,-0.313 0.293,-0.302 0.278,-0.28C0.262,-0.257 0.246,-0.228 0.23,-0.191C0.213,-0.154 0.2,-0.116 0.19,-0.075C0.183,-0.044 0.174,-0.023 0.165,-0.012C0.155,-0.001 0.14,0.005 0.119,0.005Z" style="fill:white;fill-rule:nonzero;"/>
        </g>
        <g transform="matrix(36.2609,0,0,36.2609,115.968,34.5238)">
            <path d="M0.327,0.008C0.238,0.008 0.167,-0.009 0.114,-0.043C0.061,-0.076 0.034,-0.128 0.034,-0.197C0.034,-0.234 0.04,-0.262 0.053,-0.281C0.066,-0.3 0.084,-0.31 0.109,-0.31C0.127,-0.31 0.142,-0.305 0.153,-0.296C0.164,-0.287 0.17,-0.275 0.17,-0.26C0.17,-0.247 0.169,-0.235 0.167,-0.225C0.167,-0.222 0.167,-0.218 0.166,-0.211C0.165,-0.204 0.164,-0.197 0.164,-0.19C0.164,-0.16 0.179,-0.138 0.21,-0.123C0.24,-0.108 0.282,-0.101 0.337,-0.101C0.394,-0.101 0.438,-0.111 0.47,-0.132C0.502,-0.152 0.518,-0.18 0.518,-0.217C0.518,-0.24 0.511,-0.259 0.496,-0.276C0.481,-0.292 0.463,-0.306 0.441,-0.317C0.419,-0.328 0.388,-0.341 0.348,-0.357C0.297,-0.377 0.255,-0.396 0.223,-0.414C0.19,-0.432 0.163,-0.457 0.14,-0.488C0.117,-0.519 0.105,-0.557 0.105,-0.603C0.105,-0.651 0.118,-0.694 0.143,-0.731C0.169,-0.768 0.206,-0.797 0.255,-0.818C0.303,-0.839 0.36,-0.849 0.425,-0.849C0.474,-0.849 0.518,-0.842 0.559,-0.828C0.6,-0.813 0.632,-0.791 0.657,-0.762C0.681,-0.733 0.693,-0.697 0.693,-0.654C0.693,-0.612 0.687,-0.58 0.674,-0.559C0.661,-0.538 0.643,-0.527 0.618,-0.527C0.601,-0.527 0.586,-0.532 0.575,-0.543C0.563,-0.554 0.557,-0.566 0.557,-0.581C0.557,-0.594 0.558,-0.605 0.56,-0.616C0.562,-0.636 0.563,-0.649 0.563,-0.654C0.563,-0.682 0.549,-0.703 0.522,-0.718C0.495,-0.733 0.461,-0.74 0.42,-0.74C0.363,-0.74 0.319,-0.73 0.289,-0.709C0.258,-0.688 0.243,-0.658 0.243,-0.62C0.243,-0.595 0.251,-0.573 0.267,-0.555C0.282,-0.537 0.302,-0.522 0.325,-0.51C0.348,-0.498 0.381,-0.484 0.423,-0.467C0.474,-0.446 0.514,-0.428 0.545,-0.411C0.576,-0.394 0.602,-0.372 0.624,-0.343C0.645,-0.314 0.656,-0.279 0.656,-0.237C0.656,-0.158 0.626,-0.098 0.567,-0.056C0.507,-0.013 0.427,0.008 0.327,0.008Z" style="fill:white;fill-rule:nonzero;"/>
        </g>
        <g transform="matrix(36.2609,0,0,36.2609,141.097,34.5238)">
            <path d="M0.239,0.005C0.174,0.005 0.123,-0.014 0.086,-0.051C0.05,-0.087 0.032,-0.136 0.032,-0.197C0.032,-0.251 0.043,-0.298 0.064,-0.339C0.085,-0.38 0.113,-0.411 0.147,-0.433C0.181,-0.455 0.217,-0.466 0.254,-0.466C0.291,-0.466 0.319,-0.455 0.34,-0.434C0.36,-0.412 0.37,-0.384 0.37,-0.35C0.37,-0.322 0.364,-0.298 0.352,-0.279C0.339,-0.26 0.323,-0.25 0.303,-0.25C0.29,-0.25 0.28,-0.253 0.273,-0.259C0.265,-0.265 0.261,-0.273 0.261,-0.284C0.261,-0.289 0.262,-0.294 0.263,-0.3C0.264,-0.306 0.265,-0.31 0.266,-0.313C0.269,-0.323 0.271,-0.332 0.271,-0.341C0.271,-0.35 0.269,-0.356 0.265,-0.361C0.26,-0.366 0.254,-0.368 0.246,-0.368C0.231,-0.368 0.216,-0.361 0.203,-0.347C0.19,-0.334 0.179,-0.315 0.171,-0.292C0.163,-0.269 0.159,-0.243 0.159,-0.215C0.159,-0.138 0.193,-0.099 0.26,-0.099C0.287,-0.099 0.317,-0.108 0.348,-0.127C0.38,-0.145 0.411,-0.172 0.442,-0.209C0.45,-0.218 0.459,-0.223 0.469,-0.223C0.478,-0.223 0.485,-0.219 0.49,-0.211C0.495,-0.203 0.497,-0.192 0.497,-0.178C0.497,-0.153 0.491,-0.132 0.478,-0.116C0.447,-0.077 0.409,-0.048 0.366,-0.027C0.322,-0.006 0.28,0.005 0.239,0.005Z" style="fill:white;fill-rule:nonzero;"/>
        </g>
        <g transform="matrix(36.2609,0,0,36.2609,154.078,34.5238)">
            <path d="M0.171,0.005C0.13,0.005 0.097,-0.01 0.072,-0.04C0.047,-0.07 0.035,-0.109 0.035,-0.158C0.035,-0.211 0.047,-0.262 0.072,-0.31C0.097,-0.357 0.13,-0.396 0.171,-0.425C0.212,-0.454 0.255,-0.468 0.301,-0.468C0.316,-0.468 0.326,-0.465 0.331,-0.46C0.336,-0.454 0.34,-0.444 0.343,-0.429C0.357,-0.432 0.372,-0.433 0.387,-0.433C0.42,-0.433 0.436,-0.421 0.436,-0.398C0.436,-0.384 0.431,-0.351 0.421,-0.298C0.406,-0.221 0.398,-0.168 0.398,-0.138C0.398,-0.128 0.401,-0.12 0.406,-0.114C0.41,-0.108 0.417,-0.105 0.425,-0.105C0.438,-0.105 0.453,-0.113 0.471,-0.13C0.489,-0.146 0.513,-0.172 0.544,-0.209C0.552,-0.218 0.561,-0.223 0.571,-0.223C0.58,-0.223 0.587,-0.219 0.592,-0.211C0.597,-0.203 0.599,-0.192 0.599,-0.178C0.599,-0.151 0.593,-0.131 0.58,-0.116C0.553,-0.082 0.524,-0.053 0.493,-0.03C0.462,-0.007 0.433,0.005 0.404,0.005C0.382,0.005 0.362,-0.003 0.344,-0.018C0.325,-0.033 0.311,-0.053 0.302,-0.079C0.267,-0.023 0.224,0.005 0.171,0.005ZM0.207,-0.096C0.222,-0.096 0.236,-0.105 0.249,-0.122C0.262,-0.139 0.272,-0.162 0.278,-0.191L0.315,-0.375C0.287,-0.374 0.261,-0.364 0.237,-0.344C0.214,-0.323 0.195,-0.296 0.181,-0.263C0.167,-0.23 0.16,-0.194 0.16,-0.157C0.16,-0.136 0.164,-0.121 0.172,-0.111C0.181,-0.101 0.192,-0.096 0.207,-0.096Z" style="fill:white;fill-rule:nonzero;"/>
        </g>
        <g transform="matrix(36.2609,0,0,36.2609,171.121,34.5238)">
            <path d="M0.239,0.005C0.174,0.005 0.123,-0.014 0.086,-0.051C0.05,-0.087 0.032,-0.136 0.032,-0.197C0.032,-0.251 0.043,-0.298 0.064,-0.339C0.085,-0.38 0.113,-0.411 0.147,-0.433C0.181,-0.455 0.217,-0.466 0.254,-0.466C0.291,-0.466 0.319,-0.455 0.34,-0.434C0.36,-0.412 0.37,-0.384 0.37,-0.35C0.37,-0.322 0.364,-0.298 0.352,-0.279C0.339,-0.26 0.323,-0.25 0.303,-0.25C0.29,-0.25 0.28,-0.253 0.273,-0.259C0.265,-0.265 0.261,-0.273 0.261,-0.284C0.261,-0.289 0.262,-0.294 0.263,-0.3C0.264,-0.306 0.265,-0.31 0.266,-0.313C0.269,-0.323 0.271,-0.332 0.271,-0.341C0.271,-0.35 0.269,-0.356 0.265,-0.361C0.26,-0.366 0.254,-0.368 0.246,-0.368C0.231,-0.368 0.216,-0.361 0.203,-0.347C0.19,-0.334 0.179,-0.315 0.171,-0.292C0.163,-0.269 0.159,-0.243 0.159,-0.215C0.159,-0.138 0.193,-0.099 0.26,-0.099C0.287,-0.099 0.317,-0.108 0.348,-0.127C0.38,-0.145 0.411,-0.172 0.442,-0.209C0.45,-0.218 0.459,-0.223 0.469,-0.223C0.478,-0.223 0.485,-0.219 0.49,-0.211C0.495,-0.203 0.497,-0.192 0.497,-0.178C0.497,-0.153 0.491,-0.132 0.478,-0.116C0.447,-0.077 0.409,-0.048 0.366,-0.027C0.322,-0.006 0.28,0.005 0.239,0.005Z" style="fill:white;fill-rule:nonzero;"/>
        </g>
        <g transform="matrix(36.2609,0,0,36.2609,184.465,34.5238)">
            <path d="M0.239,0.005C0.174,0.005 0.123,-0.014 0.086,-0.051C0.05,-0.087 0.032,-0.136 0.032,-0.197C0.032,-0.251 0.043,-0.298 0.064,-0.339C0.085,-0.38 0.113,-0.411 0.147,-0.433C0.181,-0.455 0.217,-0.466 0.254,-0.466C0.291,-0.466 0.319,-0.455 0.34,-0.434C0.36,-0.412 0.37,-0.384 0.37,-0.35C0.37,-0.322 0.364,-0.298 0.352,-0.279C0.339,-0.26 0.323,-0.25 0.303,-0.25C0.29,-0.25 0.28,-0.253 0.273,-0.259C0.265,-0.265 0.261,-0.273 0.261,-0.284C0.261,-0.289 0.262,-0.294 0.263,-0.3C0.264,-0.306 0.265,-0.31 0.266,-0.313C0.269,-0.323 0.271,-0.332 0.271,-0.341C0.271,-0.35 0.269,-0.356 0.265,-0.361C0.26,-0.366 0.254,-0.368 0.246,-0.368C0.231,-0.368 0.216,-0.361 0.203,-0.347C0.19,-0.334 0.179,-0.315 0.171,-0.292C0.163,-0.269 0.159,-0.243 0.159,-0.215C0.159,-0.138 0.193,-0.099 0.26,-0.099C0.287,-0.099 0.317,-0.108 0.348,-0.127C0.38,-0.145 0.411,-0.172 0.442,-0.209C0.45,-0.218 0.459,-0.223 0.469,-0.223C0.478,-0.223 0.485,-0.219 0.49,-0.211C0.495,-0.203 0.497,-0.192 0.497,-0.178C0.497,-0.153 0.491,-0.132 0.478,-0.116C0.447,-0.077 0.409,-0.048 0.366,-0.027C0.322,-0.006 0.28,0.005 0.239,0.005Z" style="fill:white;fill-rule:nonzero;"/>
        </g>
        <g transform="matrix(36.2609,0,0,36.2609,197.809,34.5238)">
            <path d="M0.603,-0.223C0.612,-0.223 0.619,-0.219 0.624,-0.211C0.628,-0.203 0.631,-0.192 0.631,-0.178C0.631,-0.151 0.625,-0.131 0.612,-0.116C0.581,-0.081 0.55,-0.052 0.518,-0.029C0.485,-0.006 0.448,0.005 0.407,0.005C0.373,0.005 0.347,-0.005 0.33,-0.025C0.313,-0.044 0.304,-0.073 0.304,-0.11C0.304,-0.129 0.309,-0.162 0.318,-0.21C0.327,-0.252 0.331,-0.281 0.331,-0.297C0.331,-0.308 0.327,-0.313 0.32,-0.313C0.311,-0.313 0.299,-0.302 0.283,-0.28C0.267,-0.257 0.251,-0.228 0.235,-0.191C0.219,-0.154 0.206,-0.116 0.196,-0.075C0.183,-0.022 0.152,0.005 0.102,0.005C0.082,0.005 0.069,-0.002 0.063,-0.017C0.056,-0.031 0.053,-0.057 0.053,-0.094C0.053,-0.115 0.053,-0.132 0.054,-0.145L0.055,-0.225C0.055,-0.328 0.066,-0.435 0.086,-0.546C0.108,-0.657 0.139,-0.751 0.18,-0.827C0.221,-0.902 0.27,-0.94 0.327,-0.94C0.358,-0.94 0.383,-0.927 0.402,-0.901C0.421,-0.874 0.43,-0.84 0.43,-0.798C0.43,-0.731 0.41,-0.661 0.371,-0.589C0.332,-0.516 0.268,-0.432 0.179,-0.335C0.177,-0.3 0.176,-0.265 0.176,-0.228C0.198,-0.285 0.223,-0.331 0.25,-0.367C0.277,-0.402 0.303,-0.428 0.33,-0.443C0.356,-0.458 0.38,-0.466 0.402,-0.466C0.445,-0.466 0.467,-0.444 0.467,-0.401C0.467,-0.375 0.46,-0.328 0.445,-0.26C0.432,-0.202 0.426,-0.164 0.426,-0.145C0.426,-0.118 0.436,-0.105 0.455,-0.105C0.468,-0.105 0.484,-0.113 0.502,-0.13C0.521,-0.146 0.545,-0.172 0.576,-0.209C0.584,-0.218 0.593,-0.223 0.603,-0.223ZM0.306,-0.841C0.294,-0.841 0.281,-0.824 0.266,-0.79C0.251,-0.755 0.237,-0.709 0.224,-0.651C0.21,-0.592 0.199,-0.529 0.19,-0.46C0.231,-0.509 0.266,-0.562 0.293,-0.619C0.32,-0.676 0.333,-0.728 0.333,-0.775C0.333,-0.796 0.331,-0.813 0.326,-0.824C0.321,-0.835 0.315,-0.841 0.306,-0.841Z" style="fill:white;fill-rule:nonzero;"/>
        </g>
        <g transform="matrix(36.2609,0,0,36.2609,216.012,34.5238)">
            <path d="M0.494,-0.223C0.503,-0.223 0.509,-0.219 0.515,-0.211C0.52,-0.203 0.522,-0.192 0.522,-0.178C0.522,-0.151 0.516,-0.131 0.503,-0.116C0.478,-0.086 0.444,-0.058 0.399,-0.033C0.354,-0.008 0.305,0.005 0.254,0.005C0.184,0.005 0.13,-0.014 0.091,-0.052C0.052,-0.09 0.033,-0.142 0.033,-0.208C0.033,-0.254 0.043,-0.297 0.062,-0.337C0.081,-0.376 0.108,-0.408 0.142,-0.431C0.177,-0.454 0.216,-0.466 0.259,-0.466C0.298,-0.466 0.329,-0.455 0.352,-0.432C0.375,-0.408 0.387,-0.377 0.387,-0.338C0.387,-0.292 0.371,-0.253 0.338,-0.22C0.305,-0.187 0.249,-0.16 0.17,-0.141C0.187,-0.11 0.218,-0.095 0.265,-0.095C0.295,-0.095 0.329,-0.106 0.368,-0.127C0.406,-0.148 0.439,-0.175 0.467,-0.209C0.475,-0.218 0.484,-0.223 0.494,-0.223ZM0.242,-0.368C0.217,-0.368 0.197,-0.354 0.18,-0.325C0.163,-0.296 0.154,-0.262 0.154,-0.221L0.154,-0.219C0.193,-0.228 0.224,-0.242 0.247,-0.261C0.27,-0.28 0.281,-0.301 0.281,-0.326C0.281,-0.339 0.278,-0.349 0.271,-0.357C0.264,-0.364 0.254,-0.368 0.242,-0.368Z" style="fill:white;fill-rule:nonzero;"/>
        </g>
        <g transform="matrix(36.2609,0,0,36.2609,230.263,34.5238)">
            <path d="M0.807,-0.223C0.816,-0.223 0.823,-0.219 0.828,-0.211C0.833,-0.203 0.835,-0.192 0.835,-0.178C0.835,-0.151 0.829,-0.131 0.816,-0.116C0.787,-0.081 0.756,-0.052 0.722,-0.029C0.688,-0.006 0.649,0.005 0.605,0.005C0.524,0.005 0.467,-0.029 0.435,-0.097C0.418,-0.069 0.395,-0.045 0.366,-0.025C0.337,-0.005 0.307,0.005 0.274,0.005C0.211,0.005 0.164,-0.021 0.135,-0.073C0.105,-0.124 0.09,-0.194 0.09,-0.282C0.09,-0.315 0.092,-0.351 0.095,-0.391L0.054,-0.391C0.034,-0.391 0.021,-0.395 0.014,-0.402C0.007,-0.409 0.003,-0.421 0.003,-0.437C0.003,-0.474 0.018,-0.493 0.048,-0.493L0.109,-0.493C0.122,-0.564 0.139,-0.628 0.162,-0.685C0.185,-0.742 0.212,-0.788 0.244,-0.822C0.276,-0.856 0.311,-0.873 0.348,-0.873C0.376,-0.873 0.398,-0.861 0.414,-0.836C0.43,-0.811 0.438,-0.78 0.438,-0.743C0.438,-0.649 0.402,-0.566 0.329,-0.493L0.42,-0.493C0.433,-0.564 0.45,-0.628 0.473,-0.685C0.496,-0.742 0.523,-0.788 0.555,-0.822C0.587,-0.856 0.622,-0.873 0.659,-0.873C0.687,-0.873 0.709,-0.861 0.725,-0.836C0.741,-0.811 0.749,-0.78 0.749,-0.743C0.749,-0.649 0.713,-0.566 0.64,-0.493L0.731,-0.493C0.742,-0.493 0.749,-0.491 0.754,-0.486C0.759,-0.481 0.761,-0.473 0.761,-0.46C0.761,-0.414 0.723,-0.391 0.648,-0.391L0.527,-0.391C0.525,-0.359 0.524,-0.326 0.524,-0.293C0.524,-0.224 0.532,-0.175 0.549,-0.147C0.565,-0.119 0.591,-0.105 0.626,-0.105C0.655,-0.105 0.68,-0.114 0.702,-0.131C0.724,-0.148 0.75,-0.174 0.78,-0.209C0.788,-0.218 0.797,-0.223 0.807,-0.223ZM0.321,-0.777C0.311,-0.777 0.3,-0.764 0.288,-0.74C0.275,-0.715 0.264,-0.68 0.253,-0.635C0.242,-0.591 0.232,-0.542 0.225,-0.488C0.264,-0.522 0.294,-0.56 0.314,-0.603C0.333,-0.645 0.343,-0.683 0.343,-0.718C0.343,-0.757 0.336,-0.777 0.321,-0.777ZM0.632,-0.777C0.622,-0.777 0.611,-0.764 0.599,-0.74C0.586,-0.715 0.575,-0.68 0.564,-0.635C0.553,-0.591 0.543,-0.542 0.536,-0.488C0.575,-0.522 0.605,-0.56 0.625,-0.603C0.644,-0.645 0.654,-0.683 0.654,-0.718C0.654,-0.757 0.647,-0.777 0.632,-0.777ZM0.295,-0.105C0.315,-0.105 0.335,-0.114 0.355,-0.133C0.375,-0.152 0.392,-0.175 0.406,-0.202C0.403,-0.223 0.401,-0.249 0.401,-0.282C0.401,-0.315 0.403,-0.351 0.406,-0.391L0.216,-0.391C0.214,-0.359 0.213,-0.326 0.213,-0.293C0.213,-0.226 0.22,-0.178 0.234,-0.149C0.249,-0.119 0.269,-0.105 0.295,-0.105Z" style="fill:white;fill-rule:nonzero;"/>
        </g>
        <g transform="matrix(36.2609,0,0,36.2609,255.863,34.5238)">
            <path d="M0.186,-0.532C0.158,-0.532 0.137,-0.539 0.123,-0.552C0.109,-0.565 0.102,-0.583 0.102,-0.606C0.102,-0.629 0.111,-0.649 0.13,-0.665C0.148,-0.68 0.171,-0.688 0.198,-0.688C0.223,-0.688 0.243,-0.682 0.258,-0.67C0.273,-0.658 0.281,-0.641 0.281,-0.619C0.281,-0.592 0.272,-0.571 0.255,-0.556C0.238,-0.54 0.215,-0.532 0.186,-0.532ZM0.09,0.005C0.069,0.005 0.054,0.001 0.046,-0.008C0.038,-0.017 0.034,-0.03 0.034,-0.049C0.034,-0.054 0.035,-0.064 0.036,-0.077C0.047,-0.199 0.064,-0.31 0.089,-0.41C0.094,-0.431 0.103,-0.445 0.116,-0.454C0.128,-0.462 0.148,-0.466 0.175,-0.466C0.204,-0.466 0.218,-0.454 0.218,-0.431C0.218,-0.428 0.217,-0.421 0.216,-0.412C0.186,-0.269 0.168,-0.15 0.162,-0.053C0.161,-0.032 0.154,-0.017 0.143,-0.008C0.132,0.001 0.114,0.005 0.09,0.005Z" style="fill:white;fill-rule:nonzero;"/>
        </g>
    </g>
</svg>
